<mxfile host="65bd71144e">
    <diagram name="Page-1" id="o6xqFdlUtKiU1hEgTM6p">
        <mxGraphModel dx="1386" dy="1227" grid="1" gridSize="10" guides="1" tooltips="1" connect="1" arrows="1" fold="1" page="0" pageScale="1" pageWidth="827" pageHeight="1169" background="#ffffff" math="0" shadow="0">
            <root>
                <mxCell id="0"/>
                <mxCell id="1" parent="0"/>
                <mxCell id="4" value="" style="rounded=0;whiteSpace=wrap;html=1;" vertex="1" parent="1">
                    <mxGeometry x="220" y="-50" width="970" height="670" as="geometry"/>
                </mxCell>
                <mxCell id="0Acgf5d6gHKmCyyt-A1s-10" value="" style="edgeStyle=none;curved=1;rounded=0;orthogonalLoop=1;jettySize=auto;html=1;fontSize=12;startSize=8;endSize=8;" parent="1" source="0Acgf5d6gHKmCyyt-A1s-1" target="0Acgf5d6gHKmCyyt-A1s-2" edge="1">
                    <mxGeometry relative="1" as="geometry"/>
                </mxCell>
                <mxCell id="0Acgf5d6gHKmCyyt-A1s-1" value="Retro / backlog refinement / planning" style="rounded=1;whiteSpace=wrap;html=1;" parent="1" vertex="1">
                    <mxGeometry x="240" y="480" width="120" height="40" as="geometry"/>
                </mxCell>
                <mxCell id="0Acgf5d6gHKmCyyt-A1s-11" value="" style="edgeStyle=none;curved=1;rounded=0;orthogonalLoop=1;jettySize=auto;html=1;fontSize=12;startSize=8;endSize=8;" parent="1" source="0Acgf5d6gHKmCyyt-A1s-2" target="0Acgf5d6gHKmCyyt-A1s-3" edge="1">
                    <mxGeometry relative="1" as="geometry"/>
                </mxCell>
                <mxCell id="0Acgf5d6gHKmCyyt-A1s-2" value="Prompt Copilot to implement user story" style="rounded=1;whiteSpace=wrap;html=1;" parent="1" vertex="1">
                    <mxGeometry x="240" y="160" width="120" height="40" as="geometry"/>
                </mxCell>
                <mxCell id="0Acgf5d6gHKmCyyt-A1s-12" value="" style="edgeStyle=none;curved=1;rounded=0;orthogonalLoop=1;jettySize=auto;html=1;fontSize=12;startSize=8;endSize=8;" parent="1" source="0Acgf5d6gHKmCyyt-A1s-3" target="0Acgf5d6gHKmCyyt-A1s-4" edge="1">
                    <mxGeometry relative="1" as="geometry"/>
                </mxCell>
                <mxCell id="0Acgf5d6gHKmCyyt-A1s-3" value="Run unit tests" style="rounded=1;whiteSpace=wrap;html=1;" parent="1" vertex="1">
                    <mxGeometry x="400" y="160" width="120" height="40" as="geometry"/>
                </mxCell>
                <mxCell id="0Acgf5d6gHKmCyyt-A1s-6" value="[Failing tests]" style="edgeStyle=orthogonalEdgeStyle;rounded=0;orthogonalLoop=1;jettySize=auto;html=1;fontSize=12;startSize=8;endSize=8;entryX=0.5;entryY=1;entryDx=0;entryDy=0;exitX=0.5;exitY=0;exitDx=0;exitDy=0;" parent="1" source="0Acgf5d6gHKmCyyt-A1s-4" target="0Acgf5d6gHKmCyyt-A1s-7" edge="1">
                    <mxGeometry relative="1" as="geometry">
                        <mxPoint x="620" y="240" as="targetPoint"/>
                    </mxGeometry>
                </mxCell>
                <mxCell id="0Acgf5d6gHKmCyyt-A1s-14" value="[Tests all pass]" style="edgeStyle=orthogonalEdgeStyle;rounded=0;orthogonalLoop=1;jettySize=auto;html=1;fontSize=12;startSize=8;endSize=8;exitX=0.5;exitY=1;exitDx=0;exitDy=0;entryX=0.5;entryY=0;entryDx=0;entryDy=0;" parent="1" source="0Acgf5d6gHKmCyyt-A1s-4" target="0Acgf5d6gHKmCyyt-A1s-13" edge="1">
                    <mxGeometry relative="1" as="geometry"/>
                </mxCell>
                <mxCell id="0Acgf5d6gHKmCyyt-A1s-4" value="" style="rhombus;whiteSpace=wrap;html=1;" parent="1" vertex="1">
                    <mxGeometry x="560" y="160" width="40" height="40" as="geometry"/>
                </mxCell>
                <mxCell id="0Acgf5d6gHKmCyyt-A1s-9" value="" style="edgeStyle=orthogonalEdgeStyle;rounded=0;orthogonalLoop=1;jettySize=auto;html=1;fontSize=12;startSize=8;endSize=8;entryX=0.5;entryY=0;entryDx=0;entryDy=0;exitX=0;exitY=0.5;exitDx=0;exitDy=0;" parent="1" source="0Acgf5d6gHKmCyyt-A1s-7" target="0Acgf5d6gHKmCyyt-A1s-3" edge="1">
                    <mxGeometry relative="1" as="geometry"/>
                </mxCell>
                <mxCell id="0Acgf5d6gHKmCyyt-A1s-7" value="Investigate and prompt Copilot to fix the failing tests" style="rounded=1;whiteSpace=wrap;html=1;" parent="1" vertex="1">
                    <mxGeometry x="520" y="80" width="120" height="40" as="geometry"/>
                </mxCell>
                <mxCell id="0Acgf5d6gHKmCyyt-A1s-17" style="edgeStyle=none;curved=1;rounded=0;orthogonalLoop=1;jettySize=auto;html=1;entryX=0;entryY=0.5;entryDx=0;entryDy=0;fontSize=12;startSize=8;endSize=8;exitX=1;exitY=0.5;exitDx=0;exitDy=0;" parent="1" source="0Acgf5d6gHKmCyyt-A1s-13" target="0Acgf5d6gHKmCyyt-A1s-16" edge="1">
                    <mxGeometry relative="1" as="geometry"/>
                </mxCell>
                <mxCell id="0Acgf5d6gHKmCyyt-A1s-13" value="Manually test the app" style="rounded=1;whiteSpace=wrap;html=1;" parent="1" vertex="1">
                    <mxGeometry x="520" y="240" width="120" height="40" as="geometry"/>
                </mxCell>
                <mxCell id="0Acgf5d6gHKmCyyt-A1s-19" value="[Not working[" style="edgeStyle=none;curved=1;rounded=0;orthogonalLoop=1;jettySize=auto;html=1;entryX=0.5;entryY=1;entryDx=0;entryDy=0;fontSize=12;startSize=8;endSize=8;" parent="1" source="0Acgf5d6gHKmCyyt-A1s-16" target="0Acgf5d6gHKmCyyt-A1s-18" edge="1">
                    <mxGeometry relative="1" as="geometry"/>
                </mxCell>
                <mxCell id="0Acgf5d6gHKmCyyt-A1s-22" value="[Working OK]" style="edgeStyle=none;curved=1;rounded=0;orthogonalLoop=1;jettySize=auto;html=1;fontSize=12;startSize=8;endSize=8;" parent="1" source="0Acgf5d6gHKmCyyt-A1s-16" target="0Acgf5d6gHKmCyyt-A1s-21" edge="1">
                    <mxGeometry relative="1" as="geometry"/>
                </mxCell>
                <mxCell id="0Acgf5d6gHKmCyyt-A1s-16" value="" style="rhombus;whiteSpace=wrap;html=1;" parent="1" vertex="1">
                    <mxGeometry x="680" y="240" width="40" height="40" as="geometry"/>
                </mxCell>
                <mxCell id="0Acgf5d6gHKmCyyt-A1s-20" style="edgeStyle=orthogonalEdgeStyle;rounded=0;orthogonalLoop=1;jettySize=auto;html=1;entryX=0.5;entryY=0;entryDx=0;entryDy=0;fontSize=12;startSize=8;endSize=8;exitX=0.5;exitY=0;exitDx=0;exitDy=0;" parent="1" source="0Acgf5d6gHKmCyyt-A1s-18" target="0Acgf5d6gHKmCyyt-A1s-3" edge="1">
                    <mxGeometry relative="1" as="geometry">
                        <Array as="points">
                            <mxPoint x="700" y="60"/>
                            <mxPoint x="460" y="60"/>
                        </Array>
                    </mxGeometry>
                </mxCell>
                <mxCell id="0Acgf5d6gHKmCyyt-A1s-18" value="Investigate and prompt Copilot to fix issues" style="rounded=1;whiteSpace=wrap;html=1;" parent="1" vertex="1">
                    <mxGeometry x="640" y="140" width="120" height="40" as="geometry"/>
                </mxCell>
                <mxCell id="0Acgf5d6gHKmCyyt-A1s-24" style="edgeStyle=none;curved=1;rounded=0;orthogonalLoop=1;jettySize=auto;html=1;entryX=0;entryY=0.5;entryDx=0;entryDy=0;fontSize=12;startSize=8;endSize=8;" parent="1" source="0Acgf5d6gHKmCyyt-A1s-21" target="0Acgf5d6gHKmCyyt-A1s-23" edge="1">
                    <mxGeometry relative="1" as="geometry"/>
                </mxCell>
                <mxCell id="0Acgf5d6gHKmCyyt-A1s-21" value="Check for compilation warnings" style="rounded=1;whiteSpace=wrap;html=1;" parent="1" vertex="1">
                    <mxGeometry x="640" y="320" width="120" height="40" as="geometry"/>
                </mxCell>
                <mxCell id="0Acgf5d6gHKmCyyt-A1s-26" value="[Warnings which&lt;div&gt;Copilot can fix]&lt;/div&gt;" style="edgeStyle=none;curved=1;rounded=0;orthogonalLoop=1;jettySize=auto;html=1;fontSize=12;startSize=8;endSize=8;" parent="1" source="0Acgf5d6gHKmCyyt-A1s-23" target="0Acgf5d6gHKmCyyt-A1s-25" edge="1">
                    <mxGeometry relative="1" as="geometry"/>
                </mxCell>
                <mxCell id="0Acgf5d6gHKmCyyt-A1s-29" value="[Warnings&lt;div&gt;which&lt;/div&gt;&lt;div&gt;Copilot&lt;/div&gt;&lt;div&gt;can&#39;t fix]&lt;/div&gt;" style="edgeStyle=none;curved=1;rounded=0;orthogonalLoop=1;jettySize=auto;html=1;entryX=0;entryY=0.5;entryDx=0;entryDy=0;fontSize=12;startSize=8;endSize=8;" parent="1" source="0Acgf5d6gHKmCyyt-A1s-23" target="0Acgf5d6gHKmCyyt-A1s-28" edge="1">
                    <mxGeometry relative="1" as="geometry"/>
                </mxCell>
                <mxCell id="0Acgf5d6gHKmCyyt-A1s-32" value="[No warnings]" style="edgeStyle=none;curved=1;rounded=0;orthogonalLoop=1;jettySize=auto;html=1;entryX=0.5;entryY=0;entryDx=0;entryDy=0;fontSize=12;startSize=8;endSize=8;" parent="1" source="0Acgf5d6gHKmCyyt-A1s-23" target="0Acgf5d6gHKmCyyt-A1s-31" edge="1">
                    <mxGeometry relative="1" as="geometry"/>
                </mxCell>
                <mxCell id="0Acgf5d6gHKmCyyt-A1s-23" value="" style="rhombus;whiteSpace=wrap;html=1;" parent="1" vertex="1">
                    <mxGeometry x="800" y="320" width="40" height="40" as="geometry"/>
                </mxCell>
                <mxCell id="0Acgf5d6gHKmCyyt-A1s-25" value="Investigate and prompt Copilot to fix warnings" style="rounded=1;whiteSpace=wrap;html=1;" parent="1" vertex="1">
                    <mxGeometry x="760" y="200" width="120" height="40" as="geometry"/>
                </mxCell>
                <mxCell id="0Acgf5d6gHKmCyyt-A1s-27" style="edgeStyle=orthogonalEdgeStyle;rounded=0;orthogonalLoop=1;jettySize=auto;html=1;entryX=0.5;entryY=0;entryDx=0;entryDy=0;fontSize=12;startSize=8;endSize=8;exitX=0.5;exitY=0;exitDx=0;exitDy=0;" parent="1" source="0Acgf5d6gHKmCyyt-A1s-25" target="0Acgf5d6gHKmCyyt-A1s-3" edge="1">
                    <mxGeometry relative="1" as="geometry">
                        <mxPoint x="710" y="150" as="sourcePoint"/>
                        <mxPoint x="470" y="170" as="targetPoint"/>
                        <Array as="points">
                            <mxPoint x="820" y="40"/>
                            <mxPoint x="460" y="40"/>
                        </Array>
                    </mxGeometry>
                </mxCell>
                <mxCell id="0Acgf5d6gHKmCyyt-A1s-28" value="Manually fix warnings" style="rounded=1;whiteSpace=wrap;html=1;" parent="1" vertex="1">
                    <mxGeometry x="920" y="320" width="120" height="40" as="geometry"/>
                </mxCell>
                <mxCell id="0Acgf5d6gHKmCyyt-A1s-30" style="edgeStyle=orthogonalEdgeStyle;rounded=0;orthogonalLoop=1;jettySize=auto;html=1;entryX=0.5;entryY=0;entryDx=0;entryDy=0;fontSize=12;startSize=8;endSize=8;exitX=0.5;exitY=0;exitDx=0;exitDy=0;" parent="1" source="0Acgf5d6gHKmCyyt-A1s-28" target="0Acgf5d6gHKmCyyt-A1s-3" edge="1">
                    <mxGeometry relative="1" as="geometry">
                        <mxPoint x="830" y="210" as="sourcePoint"/>
                        <mxPoint x="470" y="170" as="targetPoint"/>
                        <Array as="points">
                            <mxPoint x="980" y="20"/>
                            <mxPoint x="460" y="20"/>
                        </Array>
                    </mxGeometry>
                </mxCell>
                <mxCell id="0Acgf5d6gHKmCyyt-A1s-34" style="edgeStyle=none;curved=1;rounded=0;orthogonalLoop=1;jettySize=auto;html=1;entryX=0;entryY=0.5;entryDx=0;entryDy=0;fontSize=12;startSize=8;endSize=8;" parent="1" source="0Acgf5d6gHKmCyyt-A1s-31" target="0Acgf5d6gHKmCyyt-A1s-33" edge="1">
                    <mxGeometry relative="1" as="geometry"/>
                </mxCell>
                <mxCell id="0Acgf5d6gHKmCyyt-A1s-31" value="Check code coverage &amp;amp; complexity" style="rounded=1;whiteSpace=wrap;html=1;" parent="1" vertex="1">
                    <mxGeometry x="760" y="400" width="120" height="40" as="geometry"/>
                </mxCell>
                <mxCell id="0Acgf5d6gHKmCyyt-A1s-37" value="[Issues found]" style="edgeStyle=none;curved=1;rounded=0;orthogonalLoop=1;jettySize=auto;html=1;entryX=0.5;entryY=1;entryDx=0;entryDy=0;fontSize=12;startSize=8;endSize=8;" parent="1" source="0Acgf5d6gHKmCyyt-A1s-33" target="0Acgf5d6gHKmCyyt-A1s-36" edge="1">
                    <mxGeometry relative="1" as="geometry"/>
                </mxCell>
                <mxCell id="0Acgf5d6gHKmCyyt-A1s-39" style="edgeStyle=none;curved=1;rounded=0;orthogonalLoop=1;jettySize=auto;html=1;entryX=0.5;entryY=0;entryDx=0;entryDy=0;fontSize=12;startSize=8;endSize=8;" parent="1" source="0Acgf5d6gHKmCyyt-A1s-33" target="0Acgf5d6gHKmCyyt-A1s-38" edge="1">
                    <mxGeometry relative="1" as="geometry"/>
                </mxCell>
                <mxCell id="0Acgf5d6gHKmCyyt-A1s-33" value="" style="rhombus;whiteSpace=wrap;html=1;" parent="1" vertex="1">
                    <mxGeometry x="1080" y="400" width="40" height="40" as="geometry"/>
                </mxCell>
                <mxCell id="0Acgf5d6gHKmCyyt-A1s-35" style="edgeStyle=orthogonalEdgeStyle;rounded=0;orthogonalLoop=1;jettySize=auto;html=1;entryX=0.5;entryY=0;entryDx=0;entryDy=0;fontSize=12;startSize=8;endSize=8;exitX=0.5;exitY=0;exitDx=0;exitDy=0;" parent="1" source="0Acgf5d6gHKmCyyt-A1s-36" target="0Acgf5d6gHKmCyyt-A1s-3" edge="1">
                    <mxGeometry relative="1" as="geometry">
                        <mxPoint x="1100" y="240" as="sourcePoint"/>
                        <mxPoint x="470" y="170" as="targetPoint"/>
                        <Array as="points">
                            <mxPoint x="1100"/>
                            <mxPoint x="460"/>
                        </Array>
                    </mxGeometry>
                </mxCell>
                <mxCell id="0Acgf5d6gHKmCyyt-A1s-36" value="Investigate and prompt Copilot to fix issues" style="rounded=1;whiteSpace=wrap;html=1;" parent="1" vertex="1">
                    <mxGeometry x="1040" y="240" width="120" height="40" as="geometry"/>
                </mxCell>
                <mxCell id="0Acgf5d6gHKmCyyt-A1s-42" style="edgeStyle=none;curved=1;rounded=0;orthogonalLoop=1;jettySize=auto;html=1;entryX=1;entryY=0.5;entryDx=0;entryDy=0;fontSize=12;startSize=8;endSize=8;" parent="1" source="0Acgf5d6gHKmCyyt-A1s-38" target="0Acgf5d6gHKmCyyt-A1s-1" edge="1">
                    <mxGeometry relative="1" as="geometry"/>
                </mxCell>
                <mxCell id="0Acgf5d6gHKmCyyt-A1s-38" value="Commit and push changes" style="rounded=1;whiteSpace=wrap;html=1;" parent="1" vertex="1">
                    <mxGeometry x="1040" y="480" width="120" height="40" as="geometry"/>
                </mxCell>
                <mxCell id="0Acgf5d6gHKmCyyt-A1s-41" style="edgeStyle=none;curved=1;rounded=0;orthogonalLoop=1;jettySize=auto;html=1;fontSize=12;startSize=8;endSize=8;" parent="1" source="0Acgf5d6gHKmCyyt-A1s-40" edge="1">
                    <mxGeometry relative="1" as="geometry">
                        <mxPoint x="300" y="520" as="targetPoint"/>
                    </mxGeometry>
                </mxCell>
                <mxCell id="0Acgf5d6gHKmCyyt-A1s-40" value="Write PRD / spec / requirements" style="rounded=1;whiteSpace=wrap;html=1;" parent="1" vertex="1">
                    <mxGeometry x="240" y="560" width="120" height="40" as="geometry"/>
                </mxCell>
                <mxCell id="2" value="Vibe coding workflow" style="text;strokeColor=none;fillColor=none;html=1;fontSize=24;fontStyle=1;verticalAlign=middle;align=center;" parent="1" vertex="1">
                    <mxGeometry x="550" y="-50" width="280" height="40" as="geometry"/>
                </mxCell>
            </root>
        </mxGraphModel>
    </diagram>
</mxfile>